# xmcd
#
# Track frame offsets: 
#        150
#        18033
#        35278
#        50505
#        66374
#        82034
#        97901
#        115492
#        134640
#        150587
#
# Disc length: 2321 seconds
#
# Revision: 1
# Processed by: cddbd v1.5.2PL0 Copyright (c) Steve Scherf et al.
# Submitted via: ExactAudioCopy v0.90b4
#
DISCID=7e090f0a
DTITLE=Anouk - Sad Singalong Song
DYEAR=2013
DGENRE=Pop
TTITLE0=The Rules
TTITLE1=Pretending As Always
TTITLE2=Birds
TTITLE3=The Good Life
TTITLE4=Are You Lonely
TTITLE5=Stardust
TTITLE6=Only A Mother
TTITLE7=Kill
TTITLE8=I Don't Know Nothing
TTITLE9=The Black Side Of My Mind
EXTD=
EXTT0=
EXTT1=
EXTT2=
EXTT3=
EXTT4=
EXTT5=
EXTT6=
EXTT7=
EXTT8=
EXTT9=
PLAYORDER=
